<!-- 512x512 placeholder icon -->
<svg xmlns="http://www.w3.org/2000/svg" width="512" height="512" viewBox="0 0 512 512" role="img" aria-label="Ambulant+">
  <rect width="512" height="512" rx="72" fill="#0ea5a4"></rect>
  <g transform="translate(120 120)">
    <rect x="20" y="20" width="252" height="252" rx="36" fill-opacity="0.06" fill="#fff"></rect>
    <path d="M196 22c-28 0-50 22-50 50v44h-44c-20 0-36 16-36 36v84c0 20 16 36 36 36h44v44c0 28 22 50 50 50h84c28 0 50-22 50-50V278c0-28-22-50-50-50h-44v-44c0-28-22-50-50-50h-84z" fill="#fff"></path>
  </g>
</svg>
